<?xml version="1.0" standalone="no"?>
<!DOCTYPE svg PUBLIC "-//W3C//DTD SVG 20010904//EN"
 "http://www.w3.org/TR/2001/REC-SVG-20010904/DTD/svg10.dtd">
<svg version="1.0" xmlns="http://www.w3.org/2000/svg"
 width="96.000000pt" height="96.000000pt" viewBox="0 0 96.000000 96.000000"
 preserveAspectRatio="xMidYMid meet">

<g transform="translate(0.000000,96.000000) scale(0.100000,-0.100000)"
fill="#000000" stroke="none">
<path d="M360 764 c-93 -25 -162 -64 -231 -133 -101 -102 -158 -241 -101 -249
14 -2 24 3 28 15 24 72 68 146 112 190 224 224 599 148 718 -146 19 -45 27
-56 46 -56 59 0 -1 145 -101 245 -129 127 -306 178 -471 134z"/>
<path d="M405 601 c-125 -58 -155 -207 -61 -309 111 -122 326 -35 326 132 0
25 -5 57 -11 73 -24 64 -109 123 -179 123 -19 0 -53 -9 -75 -19z m130 -55
c104 -44 98 -200 -10 -241 -45 -18 -88 -12 -125 18 -75 58 -62 186 23 222 41
18 69 18 112 1z"/>
</g>
</svg>
