<?xml version="1.0" standalone="no"?>
<!DOCTYPE svg PUBLIC "-//W3C//DTD SVG 20010904//EN"
 "http://www.w3.org/TR/2001/REC-SVG-20010904/DTD/svg10.dtd">
<svg version="1.0" xmlns="http://www.w3.org/2000/svg"
 width="50.000000pt" height="50.000000pt" viewBox="0 0 50.000000 50.000000"
 preserveAspectRatio="xMidYMid meet">

<g transform="translate(0.000000,50.000000) scale(0.100000,-0.100000)"
fill="#000000" stroke="none">
<path d="M208 483 c7 -3 16 -2 19 1 4 3 -2 6 -13 5 -11 0 -14 -3 -6 -6z"/>
<path d="M74 418 l-19 -23 23 19 c21 18 27 26 19 26 -2 0 -12 -10 -23 -22z"/>
<path d="M415 420 c10 -11 20 -20 23 -20 3 0 -3 9 -13 20 -10 11 -20 20 -23
20 -3 0 3 -9 13 -20z"/>
<path d="M363 383 c-18 -7 -16 -33 2 -33 8 0 15 2 15 4 0 2 3 11 6 20 6 16 0
19 -23 9z"/>
<path d="M316 367 c-6 -13 -3 -25 12 -39 14 -15 26 -18 39 -12 15 7 14 8 -9
12 -20 2 -28 10 -30 30 -4 23 -5 24 -12 9z"/>
<path d="M280 324 c0 -8 6 -22 14 -30 17 -16 46 -19 46 -4 0 6 -9 10 -20 10
-13 0 -20 7 -20 20 0 11 -4 20 -10 20 -5 0 -10 -7 -10 -16z"/>
<path d="M250 295 c0 -24 27 -47 48 -42 14 4 14 6 -5 12 -13 4 -23 13 -23 21
0 7 -4 16 -10 19 -5 3 -10 -1 -10 -10z"/>
<path d="M482 290 c0 -14 2 -19 5 -12 2 6 2 18 0 25 -3 6 -5 1 -5 -13z"/>
<path d="M220 265 c0 -24 27 -47 48 -42 14 4 14 6 -5 12 -13 4 -23 13 -23 21
0 7 -4 16 -10 19 -5 3 -10 -1 -10 -10z"/>
<path d="M187 237 c-7 -19 36 -57 52 -47 10 6 8 10 -8 15 -11 3 -21 13 -21 20
0 19 -17 28 -23 12z"/>
<path d="M482 210 c0 -14 2 -19 5 -12 2 6 2 18 0 25 -3 6 -5 1 -5 -13z"/>
<path d="M145 148 l-40 -43 43 40 c39 36 47 45 39 45 -2 0 -21 -19 -42 -42z"/>
<path d="M75 80 c10 -11 20 -20 23 -20 3 0 -3 9 -13 20 -10 11 -20 20 -23 20
-3 0 3 -9 13 -20z"/>
<path d="M414 78 l-19 -23 23 19 c21 18 27 26 19 26 -2 0 -12 -10 -23 -22z"/>
<path d="M198 13 c6 -2 18 -2 25 0 6 3 1 5 -13 5 -14 0 -19 -2 -12 -5z"/>
<path d="M278 13 c6 -2 18 -2 25 0 6 3 1 5 -13 5 -14 0 -19 -2 -12 -5z"/>
</g>
</svg>
